<svg width="32" height="32" viewBox="0 0 32 32" fill="none" xmlns="http://www.w3.org/2000/svg">
<path d="M29.3805 0H2.61947C1.17277 0 0 1.17277 0 2.61947V29.3805C0 30.8272 1.17277 32 2.61947 32H29.3805C30.8272 32 32 30.8272 32 29.3805V2.61947C32 1.17277 30.8272 0 29.3805 0Z" fill="#84ADFF"/>
<path d="M10.7814 17.6848C10.6348 17.4811 10.3329 17.4757 10.1792 17.6794L5.9945 23.2793C5.81046 23.5259 5.98914 23.8761 6.28932 23.8761H8.29591C9.46091 23.8761 10.5598 23.3222 11.2602 22.3877L12.5664 20.6419C12.6647 20.5133 12.6647 20.34 12.5664 20.206L10.7689 17.6848H10.7814Z" fill="white"/>
<path d="M24.2384 19.405C24.1223 19.2459 23.8882 19.2084 23.7292 19.3246C22.7357 20.075 21.4528 20.352 20.1895 20.0321C18.4831 19.6015 17.2252 18.0774 17.0912 16.3245C16.9071 13.8837 18.8333 11.8307 21.2383 11.8307C22.0978 11.8307 22.9197 12.088 23.613 12.574C23.772 12.6848 23.999 12.6419 24.1098 12.4811L25.834 10.0778C25.9502 9.91165 25.9198 9.67757 25.7536 9.56143C24.4403 8.63229 22.8822 8.12305 21.2383 8.12305C18.5135 8.12305 16.1084 9.51855 14.704 11.6395L14.0411 12.5311C13.8945 12.7277 13.5997 12.7277 13.4514 12.5311L11.2733 9.61146C10.555 8.67696 9.45789 8.12305 8.29111 8.12305H6.61686C6.31668 8.12305 6.14514 8.46075 6.31668 8.70733L10.2495 14.1785L14.2501 19.7355L14.7647 20.461C16.1817 22.514 18.551 23.8666 21.2312 23.8666C22.943 23.8666 24.5815 23.3074 25.9377 22.2871C26.0967 22.1638 26.1271 21.9297 26.0056 21.7707L24.2384 19.4032V19.405Z" fill="white"/>
</svg>
